<?xml version="1.0" encoding="UTF-8"?>
<svg xmlns="http://www.w3.org/2000/svg" xmlns:xlink="http://www.w3.org/1999/xlink" width="575px" height="400px" viewBox="0 0 574 400" version="1.1">
<g id="surface1">
<path style=" stroke:none;fill-rule:nonzero;fill:rgb(90.196078%,90.196078%,90.196078%);fill-opacity:1;" d="M 228.730469 391.109375 C 228.730469 386.308594 177.527344 382.414062 114.367188 382.414062 C 51.203125 382.414062 0 386.308594 0 391.109375 C 0 395.914062 51.203125 399.804688 114.367188 399.804688 C 177.527344 399.804688 228.730469 395.914062 228.730469 391.109375 Z M 228.730469 391.109375 "/>
<path style=" stroke:none;fill-rule:nonzero;fill:rgb(18.431373%,18.039216%,25.490196%);fill-opacity:1;" d="M 87.417969 88.710938 C 107.320312 80.234375 132.113281 85.605469 156.320312 89.332031 C 156.546875 84.816406 159.277344 79.324219 156.417969 76.175781 C 152.941406 72.351562 153.261719 68.332031 155.351562 64.289062 C 160.699219 53.953125 153.039062 42.953125 145.304688 33.808594 C 141.765625 29.636719 136.453125 27.40625 131.003906 27.800781 L 116.671875 28.824219 C 109.53125 29.335938 103.457031 34.230469 101.433594 41.105469 C 98.011719 45.761719 96.179688 50.410156 97.335938 55.03125 C 92.210938 58.539062 91.347656 62.769531 93.652344 67.542969 C 95.605469 70.546875 95.582031 73.46875 93.5625 76.3125 C 90.90625 79.9375 88.875 83.980469 87.546875 88.273438 Z M 87.417969 88.710938 "/>
<path style=" stroke:none;fill-rule:nonzero;fill:rgb(18.431373%,18.039216%,25.490196%);fill-opacity:1;" d="M 560.398438 345.625 L 154.75 345.625 C 147.238281 345.625 141.148438 339.527344 141.148438 332.007812 C 288.195312 314.898438 432.480469 314.898438 574 332.007812 C 574 339.527344 567.910156 345.625 560.398438 345.625 Z M 560.398438 345.625 "/>
<path style=" stroke:none;fill-rule:nonzero;fill:rgb(24.705882%,23.921569%,33.72549%);fill-opacity:1;" d="M 574 332.808594 L 141.148438 332.007812 L 191.3125 247.503906 L 191.554688 247.105469 L 191.554688 60.867188 C 191.554688 51.359375 199.25 43.652344 208.746094 43.652344 L 504 43.652344 C 513.496094 43.652344 521.195312 51.359375 521.195312 60.867188 L 521.195312 248.386719 Z M 574 332.808594 "/>
<path style=" stroke:none;fill-rule:nonzero;fill:rgb(100%,100%,100%);fill-opacity:1;" d="M 208.355469 55.667969 C 205.265625 55.671875 202.757812 58.179688 202.753906 61.277344 L 202.753906 231.085938 C 202.757812 234.179688 205.265625 236.6875 208.355469 236.691406 L 506.792969 236.691406 C 509.882812 236.6875 512.390625 234.179688 512.390625 231.085938 L 512.390625 61.277344 C 512.390625 58.179688 509.882812 55.671875 506.792969 55.667969 Z M 208.355469 55.667969 "/>
<path style=" stroke:none;fill-rule:nonzero;fill:rgb(18.431373%,18.039216%,25.490196%);fill-opacity:1;" d="M 209.605469 259.117188 C 208.667969 259.121094 207.820312 259.667969 207.425781 260.515625 L 191.96875 294.160156 C 191.625 294.902344 191.6875 295.769531 192.128906 296.460938 C 192.570312 297.148438 193.328125 297.566406 194.148438 297.566406 L 519.214844 297.566406 C 520.046875 297.566406 520.820312 297.136719 521.257812 296.425781 C 521.695312 295.71875 521.734375 294.832031 521.363281 294.089844 L 504.558594 260.445312 C 504.15625 259.632812 503.324219 259.117188 502.414062 259.117188 Z M 209.605469 259.117188 "/>
<path style=" stroke:none;fill-rule:nonzero;fill:rgb(100%,100%,100%);fill-opacity:1;" d="M 359.972656 49.261719 C 359.972656 51.25 358.363281 52.863281 356.375 52.863281 C 354.386719 52.863281 352.773438 51.25 352.773438 49.261719 C 352.773438 47.269531 354.386719 45.65625 356.375 45.65625 C 358.363281 45.65625 359.972656 47.269531 359.972656 49.261719 Z M 359.972656 49.261719 "/>
<path style=" stroke:none;fill-rule:nonzero;fill:rgb(18.431373%,18.039216%,25.490196%);fill-opacity:1;" d="M 324.421875 303.972656 C 323.335938 303.976562 322.386719 304.703125 322.105469 305.753906 L 318.226562 320.167969 C 318.03125 320.890625 318.183594 321.664062 318.640625 322.257812 C 319.09375 322.851562 319.796875 323.199219 320.542969 323.199219 L 394.285156 323.199219 C 395.0625 323.199219 395.789062 322.820312 396.238281 322.1875 C 396.691406 321.554688 396.804688 320.742188 396.550781 320.007812 L 391.566406 305.589844 C 391.230469 304.625 390.320312 303.972656 389.296875 303.972656 Z M 324.421875 303.972656 "/>
<path style=" stroke:none;fill-rule:nonzero;fill:rgb(18.431373%,18.039216%,25.490196%);fill-opacity:1;" d="M 521.195312 244.300781 L 521.195312 247.503906 L 191.3125 247.503906 L 191.5625 247.105469 L 191.5625 244.300781 Z M 521.195312 244.300781 "/>
<path style=" stroke:none;fill-rule:nonzero;fill:rgb(42.352941%,38.823529%,100%);fill-opacity:1;" d="M 568 56.070312 C 568 87.035156 542.925781 112.136719 511.992188 112.136719 C 481.0625 112.136719 455.984375 87.035156 455.984375 56.070312 C 455.984375 25.101562 481.0625 0 511.992188 0 C 542.925781 0 568 25.101562 568 56.070312 Z M 568 56.070312 "/>
<path style=" stroke:none;fill-rule:nonzero;fill:rgb(100%,100%,100%);fill-opacity:1;" d="M 535.195312 80.5 L 488.789062 80.5 C 487.023438 80.496094 485.589844 79.0625 485.589844 77.296875 L 485.589844 49.261719 C 485.589844 47.492188 487.023438 46.058594 488.789062 46.058594 L 535.195312 46.058594 C 536.960938 46.058594 538.394531 47.492188 538.394531 49.261719 L 538.394531 77.296875 C 538.394531 79.0625 536.960938 80.496094 535.195312 80.5 Z M 488.789062 49.261719 L 488.789062 77.296875 L 535.199219 77.296875 L 535.195312 49.261719 Z M 488.789062 49.261719 "/>
<path style=" stroke:none;fill-rule:nonzero;fill:rgb(100%,100%,100%);fill-opacity:1;" d="M 526.394531 49.261719 L 497.589844 49.261719 L 497.589844 36.445312 C 497.589844 27.164062 503.648438 20.425781 511.992188 20.425781 C 520.335938 20.425781 526.394531 27.164062 526.394531 36.445312 Z M 500.792969 46.058594 L 523.195312 46.058594 L 523.195312 36.445312 C 523.195312 28.898438 518.585938 23.628906 511.992188 23.628906 C 505.398438 23.628906 500.792969 28.898438 500.792969 36.445312 Z M 500.792969 46.058594 "/>
<path style=" stroke:none;fill-rule:nonzero;fill:rgb(100%,100%,100%);fill-opacity:1;" d="M 515.191406 62.476562 C 515.191406 64.246094 513.761719 65.679688 511.992188 65.679688 C 510.226562 65.679688 508.792969 64.246094 508.792969 62.476562 C 508.792969 60.707031 510.226562 59.273438 511.992188 59.273438 C 513.761719 59.273438 515.191406 60.707031 515.191406 62.476562 Z M 515.191406 62.476562 "/>
<path style=" stroke:none;fill-rule:nonzero;fill:rgb(90.196078%,90.196078%,90.196078%);fill-opacity:1;" d="M 472.894531 179.09375 L 242.253906 179.09375 C 239.894531 179.089844 237.984375 177.179688 237.980469 174.816406 L 237.980469 117.542969 C 237.984375 115.179688 239.894531 113.269531 242.253906 113.265625 L 472.894531 113.265625 C 475.253906 113.269531 477.164062 115.179688 477.167969 117.542969 L 477.167969 174.816406 C 477.164062 177.179688 475.253906 179.089844 472.894531 179.09375 Z M 242.253906 114.976562 C 240.839844 114.976562 239.691406 116.125 239.691406 117.542969 L 239.691406 174.816406 C 239.691406 176.234375 240.839844 177.382812 242.253906 177.382812 L 472.894531 177.382812 C 474.308594 177.382812 475.457031 176.234375 475.457031 174.816406 L 475.457031 117.542969 C 475.457031 116.125 474.308594 114.976562 472.894531 114.976562 Z M 242.253906 114.976562 "/>
<path style=" stroke:none;fill-rule:nonzero;fill:rgb(90.196078%,90.196078%,90.196078%);fill-opacity:1;" d="M 295.488281 143.980469 C 295.488281 153.601562 287.699219 161.398438 278.089844 161.398438 C 268.480469 161.398438 260.691406 153.601562 260.691406 143.980469 C 260.691406 134.363281 268.480469 126.566406 278.089844 126.566406 C 287.699219 126.566406 295.488281 134.363281 295.488281 143.980469 Z M 295.488281 143.980469 "/>
<path style=" stroke:none;fill-rule:nonzero;fill:rgb(90.196078%,90.196078%,90.196078%);fill-opacity:1;" d="M 318.273438 132.371094 C 317.234375 132.367188 316.277344 132.921875 315.757812 133.820312 C 315.238281 134.71875 315.238281 135.828125 315.757812 136.726562 C 316.277344 137.625 317.234375 138.179688 318.273438 138.175781 L 454.972656 138.175781 C 456.574219 138.175781 457.875 136.875 457.875 135.273438 C 457.875 133.671875 456.574219 132.371094 454.972656 132.371094 Z M 318.273438 132.371094 "/>
<path style=" stroke:none;fill-rule:nonzero;fill:rgb(90.196078%,90.196078%,90.196078%);fill-opacity:1;" d="M 318.273438 149.789062 C 316.671875 149.789062 315.371094 151.085938 315.371094 152.691406 C 315.371094 154.292969 316.671875 155.59375 318.273438 155.59375 L 377.09375 155.59375 C 378.695312 155.59375 379.996094 154.292969 379.996094 152.691406 C 379.996094 151.085938 378.695312 149.789062 377.09375 149.789062 Z M 318.273438 149.789062 "/>
<path style=" stroke:none;fill-rule:nonzero;fill:rgb(100%,72.156863%,72.156863%);fill-opacity:1;" d="M 190.746094 150.960938 L 148.109375 173.65625 L 147.570312 154.746094 C 161.488281 152.417969 174.726562 148.371094 186.96875 141.777344 L 191.425781 130.75 C 192.414062 128.304688 194.617188 126.5625 197.222656 126.164062 C 199.828125 125.765625 202.449219 126.769531 204.121094 128.808594 C 206.617188 131.847656 206.328125 136.308594 203.464844 139.003906 Z M 190.746094 150.960938 "/>
<path style=" stroke:none;fill-rule:nonzero;fill:rgb(18.431373%,18.039216%,25.490196%);fill-opacity:1;" d="M 86.570312 281.980469 C 85.941406 279.671875 86.328125 277.203125 87.632812 275.195312 L 97 260.804688 C 101.585938 253.753906 110.765625 251.332031 118.230469 255.199219 C 114.296875 261.90625 114.84375 267.789062 119.589844 272.902344 C 112.222656 276.503906 105.410156 281.152344 99.371094 286.703125 C 97.132812 288.230469 94.296875 288.582031 91.753906 287.644531 C 89.214844 286.707031 87.28125 284.597656 86.570312 281.980469 Z M 86.570312 281.980469 "/>
<path style=" stroke:none;fill-rule:nonzero;fill:rgb(18.431373%,18.039216%,25.490196%);fill-opacity:1;" d="M 192.6875 263.164062 C 189.804688 267.972656 184.628906 270.933594 179.027344 270.976562 L 116.808594 271.449219 L 114.109375 255.78125 L 141.632812 247.675781 L 118.425781 229.84375 L 143.792969 200.128906 L 189.863281 243.117188 C 195.414062 248.296875 196.589844 256.652344 192.6875 263.164062 Z M 192.6875 263.164062 "/>
<path style=" stroke:none;fill-rule:nonzero;fill:rgb(18.431373%,18.039216%,25.490196%);fill-opacity:1;" d="M 107.09375 370.324219 L 92.519531 370.324219 C 79.4375 280.542969 66.121094 190.507812 105.472656 156.90625 L 151.886719 164.46875 L 145.953125 203.910156 L 120.046875 233.628906 Z M 107.09375 370.324219 "/>
<path style=" stroke:none;fill-rule:nonzero;fill:rgb(18.431373%,18.039216%,25.490196%);fill-opacity:1;" d="M 119.902344 390.660156 C 117.59375 391.289062 115.128906 390.902344 113.125 389.597656 L 97.304688 387.46875 C 90.261719 382.875 87.839844 373.683594 91.699219 366.210938 C 98.398438 370.152344 104.277344 369.601562 109.386719 364.847656 C 112.996094 372.144531 118.941406 371.699219 124.621094 377.84375 C 126.144531 380.085938 126.496094 382.925781 125.558594 385.46875 C 124.621094 388.011719 122.515625 389.945312 119.902344 390.660156 Z M 119.902344 390.660156 "/>
<path style=" stroke:none;fill-rule:nonzero;fill:rgb(100%,72.156863%,72.156863%);fill-opacity:1;" d="M 141.632812 96.933594 L 114.648438 90.449219 C 119.128906 81.265625 119.5 71.046875 117.347656 60.191406 L 135.695312 59.652344 C 136.273438 73.148438 138.011719 85.757812 141.632812 96.933594 Z M 141.632812 96.933594 "/>
<path style=" stroke:none;fill-rule:nonzero;fill:rgb(42.352941%,38.823529%,100%);fill-opacity:1;" d="M 149.050781 180.738281 C 129.40625 194.136719 115.527344 181.195312 104.933594 161.226562 C 106.40625 149.007812 104.023438 134.386719 99.609375 118.5 C 95.539062 103.972656 103.242188 88.742188 117.347656 83.425781 L 140.554688 93.152344 C 160.257812 109.230469 164.136719 126.648438 156.746094 145.019531 Z M 149.050781 180.738281 "/>
<path style=" stroke:none;fill-rule:nonzero;fill:rgb(100%,72.156863%,72.156863%);fill-opacity:1;" d="M 92.519531 110.441406 L 70.933594 121.785156 L 109.25 144.480469 L 114.582031 157.644531 C 115.304688 159.421875 115.261719 161.414062 114.46875 163.160156 C 113.675781 164.902344 112.203125 166.246094 110.394531 166.871094 C 108.328125 167.582031 106.050781 167.289062 104.238281 166.070312 C 102.425781 164.855469 101.285156 162.859375 101.15625 160.679688 L 100.617188 151.503906 L 51.914062 135.414062 C 48.589844 134.316406 45.953125 131.746094 44.769531 128.449219 C 43.015625 123.570312 44.769531 118.121094 49.039062 115.1875 L 88.203125 88.289062 Z M 92.519531 110.441406 "/>
<path style=" stroke:none;fill-rule:nonzero;fill:rgb(42.352941%,38.823529%,100%);fill-opacity:1;" d="M 114.109375 112.601562 C 105.105469 108.652344 96.917969 112.941406 86.585938 116.382812 L 84.964844 87.746094 C 95.226562 82.273438 105.011719 80.796875 114.109375 85.046875 Z M 114.109375 112.601562 "/>
<path style=" stroke:none;fill-rule:nonzero;fill:rgb(100%,72.156863%,72.156863%);fill-opacity:1;" d="M 142.109375 56.589844 C 142.109375 66.113281 134.394531 73.835938 124.878906 73.835938 C 115.363281 73.835938 107.652344 66.113281 107.652344 56.589844 C 107.652344 47.0625 115.363281 39.339844 124.878906 39.339844 C 134.394531 39.339844 142.109375 47.0625 142.109375 56.589844 Z M 142.109375 56.589844 "/>
<path style=" stroke:none;fill-rule:nonzero;fill:rgb(18.431373%,18.039216%,25.490196%);fill-opacity:1;" d="M 145.492188 54.414062 C 128.433594 56.085938 115.433594 53.292969 107.128906 45.339844 L 107.128906 38.9375 L 144.042969 38.9375 Z M 145.492188 54.414062 "/>
</g>
</svg>
